<svg xmlns="http://www.w3.org/2000/svg" width="541.37584" height="107.79173" viewBox="0 0 541.37584 107.79173">
  <g id="e051f253-e370-4ed4-b038-42f727497bb1" data-name="katman 2">
    <g id="aa2ba85e-6f5d-4400-8569-27b2132798bd" data-name="katman 1">
      <g>
        <path d="M257.10034,77.818,288.024,59.0762a6.05737,6.05737,0,0,0,0-10.36065l-30.9237-18.74149a6.05741,6.05741,0,0,0-9.197,5.18V72.63736A6.05768,6.05768,0,0,0,257.10034,77.818Z"/>
        <path d="M264.73152,107.79173a53.89587,53.89587,0,1,0-53.89587-53.89587A53.95684,53.95684,0,0,0,264.73152,107.79173Zm0-100.286a46.39,46.39,0,1,1-46.38987,46.39017A46.44264,46.44264,0,0,1,264.73152,7.50569Z"/>
        <path d="M405.91977,77.07884V30.71289a5.32972,5.32972,0,0,0-5.32968-5.3297h0a5.32968,5.32968,0,0,0-5.32967,5.3297V47.26243l-28.549-17.30238a6.04243,6.04243,0,0,0-9.17409,5.16728V72.66442a6.04209,6.04209,0,0,0,9.17409,5.167l28.549-17.30238V77.07853a5.32969,5.32969,0,0,0,5.32967,5.32968h0A5.32918,5.32918,0,0,0,405.91977,77.07884Z"/>
        <path d="M128.87292,25.38319a5.32971,5.32971,0,0,0-5.32969,5.3297v46.3663a5.3297,5.3297,0,0,0,10.65939,0V60.52965L162.7516,77.832a6.04219,6.04219,0,0,0,9.17408-5.16695V35.128a6.04223,6.04223,0,0,0-9.17408-5.16728l-28.549,17.30238V30.71355A5.32986,5.32986,0,0,0,128.87292,25.38319Z"/>
        <path d="M536.47988,34.9942l-14.556-8.82188a2.84,2.84,0,0,0-4.31192,2.42854v5.294H499.88955A15.492,15.492,0,0,0,484.4151,49.369a3.52786,3.52786,0,1,0,7.05572,0,8.42813,8.42813,0,0,1,8.41873-8.41839H517.612v5.294a2.83974,2.83974,0,0,0,4.31192,2.42854l14.556-8.82155A2.83983,2.83983,0,0,0,536.47988,34.9942Z"/>
        <path d="M503.8671,59.11823l-14.556,8.82186a2.84012,2.84012,0,0,0,0,4.85775l14.556,8.82157a2.84008,2.84008,0,0,0,4.31223-2.42854v-5.294h17.72241a15.4917,15.4917,0,0,0,15.4741-15.47412,3.52786,3.52786,0,0,0-7.05572,0,8.42806,8.42806,0,0,1-8.41842,8.41839H508.17929V61.54741A2.84025,2.84025,0,0,0,503.8671,59.11823Z"/>
        <path d="M18.339,65.64182l5.16345-6.90477,5.64815,7.55284c4.00586,5.35677,9.63362,8.42922,15.44,8.42922h.943v5.4835c0,2.10309,1.719,3.39794,3.06419,2.30784l10.34282-8.38273a3.2256,3.2256,0,0,0,0-4.61571L48.59773,61.12959c-1.34484-1.09007-3.06419.20477-3.06419,2.30784v5.4835h-.943c-4.01924,0-7.85346-2.16774-10.79662-6.10354l-6.67136-8.92153L33.794,44.97464c2.94317-3.93612,6.7777-6.10386,10.79662-6.10386h.94295v5.4835c0,2.10309,1.719,3.39793,3.06419,2.30786l10.34282-8.38273a3.226,3.226,0,0,0,0-4.616L48.59772,25.281c-1.34484-1.09006-3.06419.20508-3.06419,2.30786v5.4835h-.94295c-5.80642,0-11.43418,3.07247-15.44,8.42922L23.5024,49.05437,18.33894,42.1496c-4.00586-5.35708-9.63362-8.42922-15.44-8.42922a2.89892,2.89892,0,0,0,0,5.79783c4.01924,0,7.85345,2.16774,10.79662,6.10354l6.187,8.27349-6.187,8.27318c-2.94317,3.93612-6.7777,6.10385-10.79662,6.10385a2.89892,2.89892,0,0,0,0,5.79784C8.70532,74.071,14.33308,70.99855,18.339,65.64182Z"/>
      </g>
    </g>
  </g>
</svg>
